<svg xmlns="http://www.w3.org/2000/svg" viewBox="0 0 256 256"><path d="M38.5 65.8c-.6.3-1.5 1.3-1.9 2.2-.7 1.4-.7 2-.3 4.4.5 2.7.4 3.5-5.5 29.3-3.3 14.6-8.5 37.7-11.6 51.4-3 13.7-5.9 25.5-6.2 26.4-.3.8-1.2 2.3-1.8 3.3-1.8 2.5-1.5 4.8.8 6.7.9.7 3 .8 27 .8 24.2 0 26.3-.1 29.7-.9 6.2-1.5 12-4.2 17.5-8.3 1.8-1.3 2.2-1.5 1.9-.8-.8 2.1-1.3 5.3-1 6.5.2.6.9 1.8 1.5 2.4l1.2 1.1H115.5l1.4-1.3c1.2-1.1 1.6-2.2 3.8-11.4l2.4-10.1 11.2-.1 11.2-.1.3 1.2c1.3 5.9 4.5 18.2 4.9 19.2 1 2.6.5 2.5 32.7 2.9 31.8.3 31 .4 32.6-1.9 1-1.6.9-3.4-.5-6-2.2-4.3-2.2-5.1-.8-11.3.7-3.1 7.4-25.2 14.8-49 10-32.1 13.8-43.9 14.8-45.4.7-1.1 1.5-2.5 1.6-3.1.4-1.6-.5-3.5-2.1-4.7-1.5-1-1.8-1-14.7-1-7.2 0-13.7.2-14.3.4-2.8.7-3.9 4.8-2 7.3l1 1.3-1.4 4.3c-.7 2.4-3.7 12.6-6.7 22.8-7.3 25.4-7.1 24.8-7.3 24.6-.1-.1-3.2-13.1-7-28.7-3.7-15.7-7-29.1-7.3-29.8-1.5-2.9.2-2.8-34.8-2.6-34.8.1-32.7 0-34 3-.5 1.1-.5 1.9-.1 3.2.4 1.4.3 2.5-.4 5.4-.4 2-1 3.7-1.1 3.8-.2.1-1.2-1-2.2-2.4-4.4-6.3-11.3-11-20.2-13.8l-4.1-1.2-23.8-.1c-18.5-.5-24-.3-24.9.1zm49.8 10.1c7.2 2 12.9 6 16.4 11.6 2.4 3.8 3.2 6.1 4.2 10.7 1.9 9 1 22.9-2.4 34.8-5.5 19.8-18 37.1-31.8 44-4.2 2.1-6.7 2.9-11 3.5-4.4.6-40.9.7-40.9.1 0-.2 3.8-17.4 8.5-38.2 8.6-38.1 14.5-64.5 14.9-66.5l.2-1h19.3c17.8 0 19.4.1 22.6 1zm57.9 2.1c.9 3 21.6 69.7 26.2 84.5l5.7 18.2-9.3.1c-5.1 0-9.5 0-9.8-.1-.3-.1-1.6-4.8-3-10.2-2.2-9-2.6-10.2-3.8-11.3l-1.4-1.3h-33.2l-1.4 1.2c-1.2 1.2-1.6 2.3-3.9 11.4l-2.5 10.1-6 .1c-3.9.1-6 0-6-.4 0-.2 1-3.9 2.1-8.2 1.9-6.9 2.4-8.3 4.9-12.4 9.5-15.5 14.2-32.8 14.2-51.7v-7.8l2.3-9.2c1.3-5.1 2.6-10.3 3-11.7l.7-2.4h10.3c9.7.3 10.7.4 10.9 1.1zm38.5 35.1c4.7 19.7 8.8 36.5 9.1 37.3 1.6 3.3 6.5 3.3 8.2 0 .4-.8 3.9-12.3 7.7-25.6 7.2-25.2 11.3-39.3 12.9-44.2l1-2.9h4.8c2.6 0 4.8.1 4.8.3 0 .1-6 19.6-13.3 43.2-7.3 23.7-13.9 45.5-14.6 48.5-.9 4.2-1.2 6.3-1 8.7l.2 3.1-8.1-.1-8.1-.1-7.1-22.6c-10.2-32.6-24.7-79.1-25-80.4l-.2-1h20.2l8.5 35.8z"/><path d="M64 82.3c-.6.2-1.3.9-1.7 1.5-.8 1.2-20.6 82.7-20.6 84.9 0 1.9 1.1 3.5 3 4.3 1.8.8 13.1.9 16.7.2 4.2-.8 7.3-2.7 11.4-6.6 8.7-8.6 16.7-25 20.1-41.1 1.4-6.8 1.5-21.2.2-26.2-2-7.6-5.8-12.9-11.3-15.5-3-1.5-3.2-1.5-10-1.6-3.6-.3-7.2-.1-7.8.1zm12.1 9.2c8.5 1.9 11.3 17.3 6.6 36.1-4 15.8-12.5 30.8-19.9 35-2.1 1.2-2.7 1.3-6.4 1.3s-4.1-.1-3.8-.8c.1-.4 4-16.5 8.6-35.6s8.5-35.2 8.6-35.7c.2-.9 3.1-1 6.3-.3zM131.7 106.2c-1.2 1.1-2.3 4-7.6 19.7-3.7 11.1-6.2 19.1-6.2 20.2 0 1.3.3 2.1 1.4 3.1l1.3 1.4 13.6-.1c13.1-.1 13.7-.2 14.6-1.1 2-2 1.8-3-3.9-22.1-3-9.9-5.6-18.6-5.9-19.3-.6-1.6-2.9-3-4.6-3-.8-.1-1.9.4-2.7 1.2zm4.9 26.7c1.1 3.7 2.2 7.2 2.3 7.6.2.7-.2.8-4.8.8H129l2.6-7.8c1.4-4.3 2.7-7.7 2.8-7.6.1 0 1 3.2 2.2 7z"/></svg>